<?xml version="1.0" encoding="UTF-8"?>
<svg width="72px" height="15px" viewBox="0 0 72 15" version="1.1" xmlns="http://www.w3.org/2000/svg" xmlns:xlink="http://www.w3.org/1999/xlink">
    <title>9CB3025A-44BF-4230-9EA0-A591D4F4DDE9</title>
    <defs>
        <linearGradient x1="0%" y1="50%" x2="100%" y2="50%" id="linearGradient-1">
            <stop stop-color="#272158" offset="0%"></stop>
            <stop stop-color="#164194" offset="100%"></stop>
        </linearGradient>
        <polygon id="path-2" points="4e-05 0.0512608696 21.84204 0.0512608696 21.84204 14.2826087 4e-05 14.2826087"></polygon>
    </defs>
    <g id="VTEX" stroke="none" stroke-width="1" fill="none" fill-rule="evenodd">
        <g id="vtex-pago-tarjeta" transform="translate(-281.000000, -231.000000)">
            <g id="opciones" transform="translate(95.000000, 216.000000)">
                <g id="Group-7" transform="translate(186.000000, 15.000000)">
                    <g id="icn_visa-copy-2" fill-rule="nonzero">
                        <rect id="Rectangle" fill="url(#linearGradient-1)" x="0" y="0" width="22" height="14" rx="1.0575"></rect>
                        <path d="M9.31498641,5.07164326 L7.48219884,8.94124267 L6.28635129,8.94124267 L5.38507629,5.85281379 C5.33045356,5.66291598 5.28753571,5.59386223 5.11586428,5.51358725 C4.76093146,5.36306324 4.38604407,5.2525761 4,5.18471878 L4.02633596,5.07250644 L5.95178708,5.07250644 C6.21179942,5.07226784 6.43325772,5.23967202 6.47362921,5.46697597 L6.94962726,7.70604375 L8.1269421,5.07164326 L9.31498641,5.07164326 Z M13.9969344,7.67755908 C14.0018115,6.65642678 12.4011705,6.60032061 12.4119,6.1437027 C12.4119,6.00559521 12.5650387,5.85799282 12.8917996,5.82001326 C13.2742269,5.7874127 13.6594926,5.84706897 14.0066885,5.99264763 L14.2017697,5.17263437 C13.8633762,5.05994797 13.5050098,5.00149058 13.1434543,5 C12.0256392,5 11.2384867,5.52653483 11.2316589,6.27922068 C11.224831,6.8368297 11.7934926,7.14670839 12.2226712,7.33229034 C12.6518498,7.51787229 12.8079147,7.64389538 12.8079147,7.81307706 C12.8079147,8.07202862 12.4567686,8.18769364 12.1309831,8.1920095 C11.7294338,8.19786784 11.3327626,8.11352594 10.9780534,7.9468687 L10.7732181,8.79450345 C11.1742249,8.93266651 11.6011724,9.00237307 12.0314917,8.99993836 C13.219536,8.99993836 13.9969344,8.48203524 14.0008361,7.67583274 M16.9533895,8.93951633 L18,8.93951633 L17.0860447,5.06991692 L16.12527,5.06991692 C15.9109486,5.0665774 15.7166989,5.18106187 15.6375671,5.35735315 L13.9403609,8.94296901 L15.1274298,8.94296901 L15.363478,8.36464387 L16.8148819,8.36464387 L16.9533895,8.93951633 Z M15.6912144,7.56879943 L16.2862119,6.11521803 L16.6295548,7.56879943 L15.6912144,7.56879943 Z M10.9322093,5.06991692 L9.9967951,8.93951633 L8.86532432,8.93951633 L9.80073852,5.06991692 L10.9322093,5.06991692 Z" id="Shape" fill="#FFFFFF"></path>
                    </g>
                    <g id="Group-4-Copy-2" transform="translate(51.000000, 0.000000)" fill-rule="nonzero">
                        <rect id="Rectangle" fill="#1F3748" x="0" y="0" width="21" height="14" rx="1.0575"></rect>
                        <g id="Group-2" transform="translate(5.000000, 3.000000)">
                            <path d="M1.77902411,7.4458348 L1.77902411,6.95014249 C1.7848261,6.86577246 1.75350876,6.7830185 1.69304894,6.72295889 C1.63258912,6.66289929 1.54882298,6.63133156 1.46308661,6.63629634 C1.35039169,6.62919424 1.24267449,6.68293132 1.18183661,6.77660403 C1.12622953,6.68546151 1.02440412,6.63161223 0.91652411,6.63629634 C0.822846419,6.63183849 0.733738627,6.67640884 0.68214911,6.75352711 L0.68214911,6.65660403 L0.50589911,6.65660403 L0.50589911,7.4458348 L0.68214911,7.4458348 L0.68214911,7.00829634 C0.674469933,6.95353116 0.692121542,6.89825989 0.730251168,6.85767768 C0.768380794,6.81709546 0.822974755,6.79547416 0.87902411,6.79875788 C0.99433661,6.79875788 1.05339911,6.87260403 1.05339911,7.00645018 L1.05339911,7.4458348 L1.22964911,7.4458348 L1.22964911,7.00829634 C1.22196993,6.95353116 1.23962154,6.89825989 1.27775117,6.85767768 C1.31588079,6.81709546 1.37047476,6.79547416 1.42652411,6.79875788 C1.54558661,6.79875788 1.60277411,6.87260403 1.60277411,7.00645018 L1.60277411,7.4458348 L1.77902411,7.4458348 Z M4.38714911,6.65660403 L4.10121161,6.65660403 L4.10121161,6.41660403 L3.92496161,6.41660403 L3.92496161,6.65660403 L3.76277411,6.65660403 L3.76277411,6.81352711 L3.92496161,6.81352711 L3.92496161,7.17352711 C3.92496161,7.35814249 3.99714911,7.4661437 4.20621161,7.4661437 C4.2830807,7.4663277 4.35845208,7.44521571 4.42371161,7.40521942 L4.37402411,7.25752711 C4.32725515,7.28541792 4.2739857,7.30099396 4.21933661,7.30275788 C4.13214911,7.30275788 4.10308661,7.24921942 4.10308661,7.1698348 L4.10308661,6.81352711 L4.38902411,6.81352711 L4.38714911,6.65660403 Z M5.87589911,6.63629634 C5.7891535,6.63369574 5.70789136,6.67795014 5.66402411,6.75168095 L5.66402411,6.65937326 L5.49152411,6.65937326 L5.49152411,7.44860403 L5.66589911,7.44860403 L5.66589911,7.00645018 C5.66589911,6.87537326 5.72308661,6.80245018 5.83746161,6.80245018 C5.87470897,6.80218048 5.91165102,6.80907894 5.94621161,6.82275788 L5.99964911,6.66029634 C5.95990489,6.64641886 5.91806807,6.63924126 5.87589911,6.63906557 L5.87589911,6.63629634 Z M3.62589911,6.71937326 C3.52713059,6.6614879 3.41359337,6.63265941 3.29871161,6.63629634 C3.09527411,6.63629634 2.96496161,6.72860403 2.96496161,6.88921942 C2.96496161,7.01845018 3.05871161,7.0978348 3.24621161,7.12275788 L3.32871161,7.1338348 C3.42246161,7.14675788 3.46933661,7.17168095 3.46933661,7.21691172 C3.46933661,7.2778348 3.40558661,7.30921942 3.28183661,7.30921942 C3.18597425,7.31184749 3.091957,7.2829394 3.01464911,7.22706557 L2.93308661,7.36091172 C3.03462169,7.43068296 3.15618751,7.46659163 3.27996161,7.46337326 C3.51152411,7.46337326 3.64558661,7.35629634 3.64558661,7.2058348 C3.64558661,7.05537326 3.54058661,6.99352711 3.36433661,6.96952711 L3.28277411,6.95752711 C3.20683661,6.94737326 3.14683661,6.93260403 3.14683661,6.87998865 C3.14683661,6.82737326 3.20402411,6.78768095 3.29964911,6.78768095 C3.38724378,6.78888035 3.47307795,6.81207394 3.54902411,6.85506557 L3.62589911,6.71937326 Z M8.30214911,6.63629634 C8.21545301,6.63389673 8.13428795,6.67809826 8.09027411,6.75168095 L8.09027411,6.65937326 L7.91777411,6.65937326 L7.91777411,7.44860403 L8.09214911,7.44860403 L8.09214911,7.00645018 C8.09214911,6.87537326 8.14933661,6.80245018 8.26371161,6.80245018 C8.30095897,6.80218048 8.33790102,6.80907894 8.37246161,6.82275788 L8.42589911,6.66029634 C8.38615489,6.64641886 8.34431807,6.63924126 8.30214911,6.63906557 L8.30214911,6.63629634 Z M6.05214911,7.05168095 C6.04747082,7.16409146 6.09123638,7.27321754 6.17265484,7.3521528 C6.2540733,7.43108805 6.36556821,7.4724871 6.47964911,7.46614249 C6.5841979,7.47171946 6.68711745,7.43881811 6.76839911,7.3738348 L6.68496161,7.23445018 C6.62472974,7.28009905 6.55096888,7.30506427 6.47496161,7.30552711 C6.33936535,7.29745041 6.23359792,7.18681981 6.23359792,7.05306557 C6.23359792,6.91931133 6.33936535,6.80868073 6.47496161,6.80060403 C6.55096888,6.80106687 6.62472974,6.82603209 6.68496161,6.87168095 L6.76839911,6.73229634 C6.68711745,6.66731303 6.5841979,6.63441168 6.47964911,6.63998865 C6.36547759,6.63391534 6.25399883,6.67553189 6.172616,6.75460833 C6.09123317,6.83368476 6.04749359,6.94288765 6.05214911,7.05537326 L6.05214911,7.05168095 Z M7.68714911,7.05168095 L7.68714911,6.65660403 L7.51277411,6.65660403 L7.51277411,6.74891172 C7.45169328,6.67266759 7.35726438,6.62978191 7.25871161,6.63352711 C7.02571648,6.63352711 6.83683661,6.81950113 6.83683661,7.04891172 C6.83683661,7.27832231 7.02571648,7.46429634 7.25871161,7.46429634 C7.35732595,7.46834683 7.45188917,7.42540015 7.51277411,7.34891172 L7.51277411,7.44121942 L7.68714911,7.44121942 L7.68714911,7.05168095 Z M7.03746161,7.05168095 C7.04461577,6.92155826 7.15628773,6.82104469 7.28855339,6.82567856 C7.42081905,6.83031243 7.52495308,6.93838666 7.5226963,7.06868094 C7.52043953,7.19897521 7.41262333,7.30349043 7.28027411,7.30368095 C7.21327504,7.30460015 7.1489363,7.2778997 7.10281901,7.23003743 C7.05670172,7.18217517 7.03300552,7.11750962 7.03746161,7.05168095 L7.03746161,7.05168095 Z M4.93089911,6.63629634 C4.69790398,6.63935515 4.51154251,6.82780883 4.51464911,7.05721942 C4.51775571,7.28663 4.70915398,7.47012438 4.94214911,7.46706557 C5.06197645,7.4714925 5.17921676,7.43202699 5.27121161,7.35629634 L5.18589911,7.22891172 C5.11952391,7.28119929 5.03745093,7.31040785 4.95246161,7.31198865 C4.83244057,7.32173318 4.72622231,7.23594151 4.71246161,7.11814249 L5.30871161,7.11814249 C5.30871161,7.09691172 5.30871161,7.07568095 5.30871161,7.05260403 C5.30871161,6.80614249 5.15308661,6.63721942 4.92808661,6.63721942 L4.93089911,6.63629634 Z M4.93089911,6.79045018 C5.0404764,6.78838142 5.1312695,6.87365805 5.13433661,6.98152711 L4.71808661,6.98152711 C4.72463586,6.8715391 4.81906364,6.78675568 4.93089911,6.79045018 L4.93089911,6.79045018 Z M9.30996161,7.05168095 L9.30996161,6.33906557 L9.13558661,6.33906557 L9.13558661,6.75168095 C9.07499648,6.67534047 8.98078183,6.63239362 8.88246161,6.63629634 C8.64946648,6.63629634 8.46058661,6.82227037 8.46058661,7.05168095 C8.46058661,7.28109154 8.64946648,7.46706557 8.88246161,7.46706557 C8.98087568,7.47143499 9.07529718,7.42839384 9.13558661,7.35168095 L9.13558661,7.44398865 L9.30996161,7.44398865 L9.30996161,7.05168095 Z M9.60152411,7.32860403 C9.61216332,7.3287733 9.62266881,7.33096746 9.63246161,7.33506557 C9.64200331,7.33928571 9.650851,7.34488601 9.65871161,7.35168095 C9.66601055,7.35895954 9.67203007,7.367382 9.67652411,7.37660403 C9.68012753,7.38637364 9.68202928,7.39667232 9.68214911,7.40706557 C9.68227492,7.41748059 9.68036524,7.42782225 9.67652411,7.43752711 C9.67248659,7.44700515 9.66640942,7.45550827 9.65871161,7.46245018 C9.65113818,7.46984406 9.64223766,7.47579078 9.63246161,7.47998865 C9.62266881,7.48408676 9.61216332,7.48628091 9.60152411,7.48645018 C9.59058384,7.48626343 9.57977456,7.48407223 9.56964911,7.47998865 C9.55987306,7.47579078 9.55097255,7.46984406 9.54339911,7.46245018 C9.53570131,7.45550827 9.52962413,7.44700515 9.52558661,7.43752711 C9.52174548,7.42782225 9.5198358,7.41748059 9.51995578,7.40706557 C9.52008145,7.39667232 9.52198319,7.38637364 9.52558661,7.37660403 C9.53008065,7.367382 9.53610017,7.35895954 9.54339911,7.35168095 C9.55125972,7.34488601 9.56010741,7.33928571 9.56964911,7.33506557 C9.57876001,7.33234709 9.5882581,7.33110017 9.59777411,7.33137326 L9.60152411,7.32860403 Z M9.60152411,7.46891172 C9.60956701,7.46888773 9.61752802,7.46732003 9.62496161,7.46429634 C9.63224191,7.46076044 9.6388909,7.45608423 9.64464911,7.45045018 C9.65037049,7.44497799 9.65484446,7.43837028 9.65777411,7.43106557 C9.65972216,7.42318054 9.65972216,7.4149506 9.65777411,7.40706557 C9.65964304,7.39948331 9.65964304,7.3915709 9.65777411,7.38398865 C9.65167996,7.36932227 9.63985715,7.35768135 9.62496161,7.35168095 C9.61775767,7.34789437 9.60968878,7.34598763 9.60152411,7.34613376 C9.59306056,7.34599063 9.58468921,7.34789276 9.57714911,7.35168095 C9.56944622,7.35454932 9.56242551,7.35894831 9.55652411,7.36460403 C9.55140824,7.37054834 9.54700426,7.37705268 9.54339911,7.38398865 C9.54041507,7.39133357 9.53882622,7.39915559 9.53871161,7.40706557 C9.53873195,7.41528419 9.5403221,7.42342572 9.54339911,7.43106557 C9.54700426,7.43800153 9.55140824,7.44450587 9.55652411,7.45045018 C9.56262735,7.45609187 9.56958574,7.46076323 9.57714911,7.46429634 C9.58356178,7.46786455 9.59053149,7.47036 9.59777411,7.47168095 L9.60152411,7.46891172 Z M9.60949248,7.37187693 C9.61761039,7.37129284 9.6256944,7.37340171 9.63249248,7.37787693 C9.6383809,7.38238835 9.64173196,7.38946283 9.64149248,7.39687693 C9.64125128,7.40290009 9.63875235,7.40861193 9.63449248,7.41287693 C9.62917599,7.41750419 9.62251763,7.42030771 9.61549248,7.42087693 L9.64149248,7.45087693 L9.62149248,7.45087693 L9.59749248,7.42087693 L9.58949248,7.42087693 L9.58949248,7.45087693 L9.57249248,7.45087693 L9.57249248,7.37187693 L9.60949248,7.37187693 Z M9.58952411,7.38664796 L9.58952411,7.41664796 L9.60952411,7.41664796 C9.61275932,7.41779178 9.6162889,7.41779178 9.61952411,7.41664796 C9.62204217,7.41475942 9.62352411,7.41179553 9.62352411,7.40864796 C9.62352411,7.40550039 9.62204217,7.4025365 9.61952411,7.40064796 C9.6162889,7.39950414 9.61275932,7.39950414 9.60952411,7.40064796 L9.58952411,7.38664796 Z M8.66121161,7.04891172 C8.66836577,6.91878903 8.78003773,6.81827546 8.91230339,6.82290933 C9.04456905,6.8275432 9.14870308,6.93561743 9.1464463,7.06591171 C9.14418953,7.19620598 9.03637333,7.3007212 8.90402411,7.30091172 C8.83702504,7.30183092 8.7726863,7.27513047 8.72656901,7.2272682 C8.68045172,7.17940593 8.65675552,7.11474039 8.66121161,7.04891172 L8.66121161,7.04891172 Z M2.76621161,7.04891172 L2.76621161,6.6538348 L2.59183661,6.6538348 L2.59183661,6.74614249 C2.52940164,6.6716996 2.43473758,6.63092124 2.33683661,6.63629634 C2.10384148,6.63629634 1.91496161,6.82227037 1.91496161,7.05168095 C1.91496161,7.28109154 2.10384148,7.46706557 2.33683661,7.46706557 C2.43545095,7.47111606 2.53001417,7.42816938 2.59089911,7.35168095 L2.59089911,7.44398865 L2.76527411,7.44398865 L2.76621161,7.04891172 Z M2.11652411,7.04891172 C2.12367827,6.91878903 2.23535023,6.81827546 2.36761589,6.82290933 C2.49988155,6.8275432 2.60401558,6.93561743 2.6017588,7.06591171 C2.59950203,7.19620598 2.49168583,7.3007212 2.35933661,7.30091172 C2.29221228,7.30282013 2.22734607,7.27695181 2.18048988,7.22958854 C2.13363368,7.18222528 2.10907374,7.11769969 2.11277411,7.05168095 L2.11652411,7.04891172 Z" id="Shape" fill="#FFFFFF"></path>
                            <rect id="Rectangle" fill="#EB611C" x="3.56683661" y="0.636296338" width="2.64375" height="4.67815385"></rect>
                            <path d="M3.73464911,2.97537326 C3.73400461,2.06252997 4.1595368,1.20005284 4.88871161,0.636296338 C3.64986874,-0.322406382 1.87077044,-0.182819035 0.801758761,0.956957039 C-0.26725292,2.09673311 -0.26725292,3.85401341 0.801758761,4.99378948 C1.87077044,6.13356556 3.64986874,6.2731529 4.88871161,5.31445018 C4.15976057,4.75051602 3.73428477,3.88815318 3.73464911,2.97537326 Z" id="Path" fill="#E41221"></path>
                            <path d="M9.77777411,2.97537326 C9.77787973,4.11450893 9.11735964,5.15369728 8.07676589,5.65154913 C7.03617215,6.14940098 5.79821582,6.01850178 4.88871161,5.31445018 C5.61724189,4.75020483 6.04254575,3.88801988 6.04254575,2.97537326 C6.04254575,2.06272664 5.61724189,1.20054169 4.88871161,0.636296338 C5.79821582,-0.0677552539 7.03617215,-0.198654461 8.07676589,0.299197389 C9.11735964,0.79704924 9.77787973,1.83623759 9.77777411,2.97537326 L9.77777411,2.97537326 Z" id="Path" fill="#F59E1E"></path>
                        </g>
                        <path d="M10.096,8.1875 L10.096,8.0375 L10.159,8.0375 L10.159,8.006 L10,8.006 L10,8.0375 L10.063,8.0375 L10.063,8.1875 L10.096,8.1875 Z M10.4065,8.1875 L10.4065,8 L10.3525,8 L10.2955,8.129 L10.24,8 L10.2025,8 L10.2025,8.1875 L10.237,8.1875 L10.237,8.051 L10.2895,8.174 L10.3255,8.174 L10.378,8.051 L10.378,8.1935 L10.4065,8.1875 Z" id="Shape" fill="#F59E1E"></path>
                    </g>
                    <g id="Group-10-Copy" transform="translate(25.000000, 0.000000)">
                        <g id="Group-3" transform="translate(0.000000, 0.046565)">
                            <mask id="mask-3" fill="white">
                                <use xlink:href="#path-2"></use>
                            </mask>
                            <g id="Clip-2"></g>
                            <path d="M19.02974,10.9343837 L18.06084,11.9919815 L11.89114,11.9791663 L11.89114,7.12454674 L9.89164,7.12454674 L12.35524,1.65518804 L14.75394,1.65518804 L15.59644,3.52660109 L15.59644,1.65518804 L18.55774,1.65518804 L19.06844,3.05732935 L19.58084,1.65518804 L21.84204,1.65518804 L21.84204,0.741394565 C21.84204,0.36026413 21.52624,0.0512315217 21.13654,0.0512315217 L0.70554,0.0512315217 C0.31584,0.0512315217 4e-05,0.36026413 4e-05,0.741394565 L4e-05,13.5925141 C4e-05,13.9735467 0.31584,14.2826772 0.70554,14.2826772 L21.13654,14.2826772 C21.52624,14.2826772 21.84204,13.9735467 21.84204,13.5925141 L21.84204,11.9879707 L20.00574,11.9879707 L19.02974,10.9343837 Z" id="Fill-1" fill="#016FD0" mask="url(#mask-3)"></path>
                        </g>
                        <path d="M12.97573,4.74926087 L13.55633,3.39182609 L14.13633,4.74926087 L12.97573,4.74926087 Z M20.04593,2.29529348 L19.07933,4.92309783 L18.11913,2.30155435 L16.25283,2.29529348 L16.25283,6.52001087 L14.34333,2.29588043 L12.80943,2.29588043 L10.87363,6.56011957 L12.20133,6.56011957 L12.56643,5.70629348 L14.54533,5.70629348 L14.91033,6.56011957 L16.27093,6.56011957 L16.27063,6.55943478 L17.42663,6.55943478 L17.42663,3.63032609 L18.54033,6.55943478 L19.59523,6.55943478 L20.68623,3.64030435 L20.68623,6.56941304 L21.84203,6.55943478 L21.84203,6.56501087 L21.84203,2.29529348 L20.04593,2.29529348 Z" id="Fill-4" fill="#016FD0"></path>
                        <path d="M16.25493,11.406737 L16.25493,10.4310196 L13.75343,10.4310196 L13.75343,9.77558478 L16.19523,9.77558478 L16.19523,8.80867174 L13.75343,8.80867174 L13.75343,8.1414 L16.25493,8.1414 L16.25493,7.17751957 L18.28333,9.28968261 L16.25493,11.406737 Z M19.07153,8.51088913 L17.82073,7.15824783 L16.25493,7.15824783 L16.25493,7.15815 L12.55583,7.15815 L12.55583,11.4260087 L16.23643,11.4260087 L17.77773,11.4260087 L19.03763,10.0597696 L20.31063,11.4260087 L21.84203,11.4260087 L21.84203,11.3654543 L19.83873,9.28968261 L21.84203,7.1919 L21.84203,7.15824783 L20.32583,7.15824783 L19.07153,8.51088913 Z" id="Fill-6" fill="#016FD0"></path>
                        <polygon id="Fill-8" fill="#016FD0" points="21.74204 8.07587609 20.59194 9.27825652 21.74204 10.4915935"></polygon>
                    </g>
                </g>
            </g>
        </g>
    </g>
</svg>